<mxfile host="app.diagrams.net" modified="2024-04-22T07:47:19.151Z" agent="Mozilla/5.0 (X11; Ubuntu; Linux x86_64; rv:123.0) Gecko/20100101 Firefox/123.0" etag="RPpMQp-igKaPwsA6jT3B" version="24.2.5" type="github">
  <diagram name="Page-1" id="ZJJYtPXDSKrinVVGFOde">
    <mxGraphModel dx="691" dy="660" grid="1" gridSize="10" guides="1" tooltips="1" connect="1" arrows="1" fold="1" page="1" pageScale="1" pageWidth="850" pageHeight="1100" math="0" shadow="0">
      <root>
        <mxCell id="0" />
        <mxCell id="1" parent="0" />
        <mxCell id="3Lx6cvFHlFur323gadac-1" value="&lt;h1 style=&quot;margin-top: 0px;&quot;&gt;Products API&lt;br&gt;&lt;/h1&gt;&lt;ul&gt;&lt;li&gt;GET /products?filter={criteria} &amp;lt;- get all products, filter is optional&lt;br&gt;&lt;/li&gt;&lt;li&gt;GET /products/page?page_num={N}&amp;amp;page_size={M}&amp;amp;sort_by={sort_param} &amp;lt;- get page of products sorted by {sort_param}&lt;br&gt;&lt;/li&gt;&lt;li&gt;GET /products/{id} &amp;lt;- get product info by id&lt;/li&gt;&lt;li&gt;GET /products/{id}/reviews &amp;lt;- get review of a defined product&lt;/li&gt;&lt;li&gt;PUT /products &amp;lt;- edit product (auth)&lt;/li&gt;&lt;li&gt;POST /products &amp;lt;- add product (auth)&lt;br&gt;&lt;/li&gt;&lt;li&gt;DELETE /products/{id} &amp;lt;- delete product (auth)&lt;br&gt;&lt;/li&gt;&lt;/ul&gt;" style="text;html=1;whiteSpace=wrap;overflow=hidden;rounded=0;" vertex="1" parent="1">
          <mxGeometry x="50" y="70" width="450" height="200" as="geometry" />
        </mxCell>
      </root>
    </mxGraphModel>
  </diagram>
</mxfile>
